<?xml version="1.0" encoding="utf-8"?>
<!-- Generator: Adobe Illustrator 17.1.0, SVG Export Plug-In . SVG Version: 6.00 Build 0)  -->
<!DOCTYPE svg PUBLIC "-//W3C//DTD SVG 1.1//EN" "http://www.w3.org/Graphics/SVG/1.1/DTD/svg11.dtd">
<svg version="1.1" id="Layer_1" xmlns="http://www.w3.org/2000/svg" xmlns:xlink="http://www.w3.org/1999/xlink" x="0px" y="0px"
	 viewBox="0 0 111.8 48.7" enable-background="new 0 0 111.8 48.7" xml:space="preserve">
<g>
	<g>
		<path d="M17.4,21.7c0.6,0,1,0.2,1.3,0.7c0.3,0.4,0.4,0.9,0.2,1.5c-0.4,1.3-1.2,2.4-2.4,3.2c-1.2,0.9-2.5,1.3-3.9,1.3h-0.1
			c-1.8,0-3.4-0.7-4.7-2s-2-2.9-2-4.7V9.1c0-1.8,0.7-3.4,2-4.7s2.9-2,4.7-2h0.1c1.4,0,2.7,0.4,3.9,1.3C17.7,4.6,18.5,5.6,19,7
			c0.2,0.5,0.1,1-0.2,1.5c-0.3,0.4-0.8,0.7-1.3,0.7c-0.8,0-1.3-0.4-1.5-1.1c-0.2-0.7-0.6-1.2-1.2-1.7s-1.2-0.6-2-0.6h-0.1
			c-0.9,0-1.7,0.3-2.4,1s-1,1.4-1,2.4v12.6c0,0.9,0.3,1.7,1,2.4s1.5,1,2.4,1h0.1c0.7,0,1.4-0.2,2-0.7c0.6-0.4,1-1,1.2-1.6
			C16.1,22.1,16.6,21.7,17.4,21.7z"/>
		<path d="M34.4,10.4c0.5,0,0.8,0.2,1.2,0.5c0.3,0.3,0.5,0.7,0.5,1.2v14.7c0,0.5-0.2,0.8-0.5,1.2c-0.3,0.3-0.7,0.5-1.2,0.5
			c-0.9,0-1.4-0.4-1.6-1.2c-1.2,0.8-2.6,1.2-4.1,1.2h-0.1c-2,0-3.7-0.7-5.2-2.1s-2.1-3.2-2.1-5.2v-9c0-0.4,0.2-0.8,0.5-1.2
			c0.3-0.3,0.7-0.5,1.2-0.5c0.4,0,0.8,0.2,1.2,0.5c0.3,0.3,0.5,0.7,0.5,1.2v9c0,1.1,0.4,2.1,1.2,2.8s1.7,1.2,2.8,1.2h0.1
			c1.1,0,2-0.4,2.8-1.2c0.8-0.8,1.2-1.7,1.2-2.8v-9c0-0.4,0.2-0.8,0.5-1.2C33.6,10.5,34,10.4,34.4,10.4z"/>
		<path d="M50.9,10.4c0.5,0,0.8,0.2,1.2,0.5c0.3,0.3,0.5,0.7,0.5,1.2v14.6c0,0.5-0.2,0.8-0.5,1.2c-0.3,0.3-0.7,0.5-1.2,0.5
			s-0.8-0.2-1.2-0.5c-0.3-0.3-0.5-0.7-0.5-1.2v-6.2h-6.7v6.2c0,0.5-0.2,0.8-0.5,1.2c-0.3,0.3-0.7,0.5-1.2,0.5
			c-0.5,0-0.8-0.2-1.2-0.5c-0.3-0.3-0.5-0.7-0.5-1.2V12.1c0-0.5,0.2-0.8,0.5-1.2c0.3-0.3,0.7-0.5,1.2-0.5c0.4,0,0.8,0.2,1.2,0.5
			c0.3,0.3,0.5,0.7,0.5,1.2v5.2h6.7v-5.2c0-0.5,0.2-0.8,0.5-1.2C50,10.6,50.4,10.4,50.9,10.4z"/>
		<path d="M68.4,10.4c0.5,0,0.8,0.2,1.2,0.5c0.3,0.3,0.5,0.7,0.5,1.2v14.7c0,0.5-0.2,0.8-0.5,1.2c-0.3,0.3-0.7,0.5-1.2,0.5
			c-0.9,0-1.4-0.4-1.6-1.2c-1.2,0.8-2.6,1.2-4.1,1.2h-0.1c-2,0-3.7-0.7-5.2-2.1s-2.1-3.2-2.1-5.2v-9c0-0.4,0.2-0.8,0.5-1.2
			c0.3-0.3,0.7-0.5,1.2-0.5c0.4,0,0.8,0.2,1.2,0.5c0.3,0.3,0.5,0.7,0.5,1.2v9c0,1.1,0.4,2.1,1.2,2.8s1.7,1.2,2.8,1.2h0.1
			c1.1,0,2-0.4,2.8-1.2c0.8-0.8,1.2-1.7,1.2-2.8v-9c0-0.4,0.2-0.8,0.5-1.2C67.6,10.5,68,10.4,68.4,10.4z"/>
		<path d="M86,10.6c0.5,0,0.8,0.2,1.2,0.5c0.3,0.3,0.5,0.7,0.5,1.2v21.7c0,0.5-0.2,0.8-0.5,1.2c-0.3,0.3-0.7,0.5-1.2,0.5
			s-0.8-0.2-1.2-0.5c-0.3-0.3-0.5-0.7-0.5-1.2v-6.6c-1.2,0.8-2.6,1.2-4,1.2h-0.1c-2,0-3.7-0.7-5.2-2.1s-2.1-3.2-2.1-5.2v-9
			c0-0.5,0.2-0.8,0.5-1.2c0.3-0.3,0.7-0.5,1.2-0.5c0.4,0,0.8,0.2,1.2,0.5c0.3,0.3,0.5,0.7,0.5,1.2v9c0,1.1,0.4,2.1,1.2,2.8
			s1.7,1.2,2.8,1.2h0.1c1.1,0,2-0.4,2.8-1.2c0.8-0.8,1.2-1.7,1.2-2.8v-9c0-0.5,0.2-0.8,0.5-1.2C85.1,10.7,85.5,10.6,86,10.6z"/>
		<path d="M103.5,10.4c0.5,0,0.8,0.2,1.2,0.5c0.3,0.3,0.5,0.7,0.5,1.2v14.7c0,0.5-0.2,0.8-0.5,1.2c-0.3,0.3-0.7,0.5-1.2,0.5
			c-0.9,0-1.4-0.4-1.6-1.2c-1.2,0.8-2.6,1.2-4.1,1.2h-0.1c-2,0-3.7-0.7-5.2-2.1s-2.1-3.2-2.1-5.2v-3.4c0-2,0.7-3.7,2.1-5.2
			s3.2-2.1,5.2-2.1h0.1c1.5,0,2.8,0.4,4.1,1.2C102.2,10.8,102.7,10.4,103.5,10.4z M101.9,17.7c0-1.1-0.4-2.1-1.2-2.8
			c-0.8-0.8-1.7-1.2-2.8-1.2h-0.1c-1.1,0-2.1,0.4-2.8,1.2s-1.2,1.7-1.2,2.8V21c0,1.1,0.4,2.1,1.2,2.8s1.7,1.2,2.8,1.2h0.1
			c1.1,0,2-0.4,2.8-1.2c0.8-0.8,1.2-1.7,1.2-2.8V17.7z"/>
	</g>
	<g>
		<path d="M6.1,42.2c0-1.7,0.7-3,2.5-3c1.2,0,1.7,0.6,1.9,1.1h0v-3.8H11V45h-0.4c-0.1-0.2-0.1-0.5-0.1-1h0c-0.5,0.9-1.2,1.1-2,1.1
			C6.5,45.1,6.1,43.8,6.1,42.2z M10.5,42.6v-0.9c0-1-0.5-2.2-2-2.2s-2,1.1-2,2.6c0,1.7,0.6,2.5,2,2.5C9.9,44.7,10.5,43.7,10.5,42.6z
			"/>
		<path d="M14.9,36.9c0.2,0,0.4,0.2,0.4,0.4c0,0.2-0.2,0.4-0.4,0.4c-0.2,0-0.4-0.2-0.4-0.4C14.5,37.1,14.6,36.9,14.9,36.9z
			 M14.6,39.3h0.5V45h-0.5V39.3z"/>
		<path d="M22.1,39.3h1.8v0.3c-0.2,0.1-0.7,0.1-1,0.1v0.1c0.5,0.3,0.8,0.8,0.8,1.5c0,1.2-0.9,2.1-2.5,2.1c-0.9,0-1.3-0.2-1.5-0.3
			c-0.3,0.2-0.5,0.4-0.5,0.6c0,0.6,1.4,0.7,2.5,0.9c1.4,0.2,2.2,0.5,2.2,1.5c0,1.2-1.3,1.6-2.9,1.6c-1.8,0-2.5-0.6-2.5-1.5
			c0-0.7,0.5-1.2,1-1.5c-0.5-0.1-0.9-0.5-0.9-0.9c0-0.3,0.2-0.6,0.6-0.9c-0.4-0.3-0.6-0.8-0.6-1.5c0-1.2,0.9-2.1,2.5-2.1
			C21.4,39.2,21.8,39.2,22.1,39.3z M20.1,44.7C19.5,45,19,45.4,19,46c0,0.6,0.6,1.1,2,1.1c1.1,0,2.3-0.3,2.3-1.2
			c0-0.5-0.3-0.9-1.9-1.1L20.1,44.7z M19.2,41.3c0,0.9,0.6,1.6,2,1.6c1.3,0,2-0.6,2-1.7c0-0.7-0.4-1.7-2-1.7
			C19.9,39.6,19.2,40.3,19.2,41.3z"/>
		<path d="M27.5,36.9c0.2,0,0.4,0.2,0.4,0.4c0,0.2-0.2,0.4-0.4,0.4c-0.2,0-0.4-0.2-0.4-0.4C27.2,37.1,27.3,36.9,27.5,36.9z
			 M27.3,39.3h0.5V45h-0.5V39.3z"/>
		<path d="M32.4,39.3h1.8v0.4h-1.8v3.6c0,1.1,0.5,1.4,1.4,1.4c0.2,0,0.4,0,0.7,0V45c-0.3,0-0.6,0.1-0.8,0.1c-1.2,0-1.7-0.4-1.7-1.9
			v-3.5h-1v-0.3l1-0.1l0.1-1.4h0.3V39.3z"/>
		<path d="M41.4,41.1V45H41C41,44.8,41,44.5,41,44.1h0c-0.6,0.9-1.5,1-2.2,1c-1,0-1.9-0.4-1.9-1.6c0-1.2,1-1.9,2.7-1.9
			c0.4,0,0.9,0,1.4,0.1v-0.5c0-0.8-0.3-1.6-1.7-1.6c-1.1,0-1.6,0.6-1.6,1.2h-0.4c0-0.1,0-0.1,0-0.1c0-1.1,1.1-1.5,2-1.5
			C40.9,39.2,41.4,40,41.4,41.1z M40.9,42.8v-0.7C40.4,42,40,42,39.5,42c-1.5,0-2.2,0.7-2.2,1.5c0,0.7,0.5,1.2,1.4,1.2
			C40.4,44.7,40.9,43.6,40.9,42.8z"/>
		<path d="M45.3,36.5v7.6c0,0.5,0.2,0.5,0.7,0.5v0.4c-0.1,0-0.2,0-0.2,0c-0.9,0-0.9-0.3-0.9-1v-7.6H45.3z"/>
		<path d="M57.7,43.5c0-0.8-0.6-1.1-1.7-1.2c-1.1-0.1-2.1-0.3-2.1-1.5c0-0.8,0.6-1.6,2.1-1.6c1,0,2,0.4,2,1.5c0,0,0,0.1,0,0.2h-0.4
			c0-0.6-0.5-1.2-1.6-1.2c-1.1,0-1.5,0.5-1.5,1.1c0,0.8,0.7,1,1.8,1.1c1.1,0.2,2,0.5,2,1.6c0,0.8-0.6,1.7-2.3,1.7
			c-1.2,0-2.2-0.5-2.2-1.7c0,0,0-0.1,0-0.2h0.4c0,0.8,0.5,1.4,1.8,1.4C57.2,44.7,57.7,44.1,57.7,43.5z"/>
		<path d="M66.3,42.2c0,1.5-0.6,3-2.5,3c-2,0-2.6-1.1-2.6-2.9c0-1.7,0.7-3,2.6-3C65.7,39.2,66.3,40.6,66.3,42.2z M61.7,42.2
			c0,1.6,0.6,2.5,2.1,2.5c1.3,0,2-0.8,2-2.5c0-1.5-0.5-2.5-2-2.5C62.2,39.6,61.7,40.7,61.7,42.2z"/>
		<path d="M70.1,36.5v7.6c0,0.5,0.2,0.5,0.7,0.5v0.4c-0.1,0-0.2,0-0.2,0c-0.9,0-0.9-0.3-0.9-1v-7.6H70.1z"/>
		<path d="M78.3,45h-0.4c-0.1-0.2-0.1-0.5-0.1-1h0c-0.5,0.8-1.4,1.1-1.9,1.1c-1.9,0-2.2-1.2-2.2-2.5v-3.3h0.5v3.3
			c0,1.1,0.2,2.1,1.7,2.1c1.3,0,1.9-1.1,1.9-2.2v-3.3h0.5V45z"/>
		<path d="M82.5,39.3h1.8v0.4h-1.8v3.6c0,1.1,0.5,1.4,1.4,1.4c0.2,0,0.4,0,0.7,0V45c-0.3,0-0.6,0.1-0.8,0.1c-1.2,0-1.7-0.4-1.7-1.9
			v-3.5h-1v-0.3l1-0.1l0.1-1.4h0.3V39.3z"/>
		<path d="M87.8,36.9c0.2,0,0.4,0.2,0.4,0.4c0,0.2-0.2,0.4-0.4,0.4c-0.2,0-0.4-0.2-0.4-0.4C87.5,37.1,87.6,36.9,87.8,36.9z
			 M87.6,39.3h0.5V45h-0.5V39.3z"/>
		<path d="M96.7,42.2c0,1.5-0.6,3-2.5,3c-2,0-2.6-1.1-2.6-2.9c0-1.7,0.7-3,2.6-3C96.2,39.2,96.7,40.6,96.7,42.2z M92.1,42.2
			c0,1.6,0.6,2.5,2.1,2.5c1.3,0,2-0.8,2-2.5c0-1.5-0.5-2.5-2-2.5C92.7,39.6,92.1,40.7,92.1,42.2z"/>
		<path d="M104.6,41.6V45h-0.5v-3.3c0-0.9-0.1-2.1-1.7-2.1c-1.3,0-2,1.1-2,2.2V45h-0.5v-5.7h0.4c0.1,0.2,0.1,0.5,0.1,0.9h0
			c0.5-0.8,1.4-1.1,2.1-1.1C104.3,39.2,104.6,40.4,104.6,41.6z"/>
	</g>
	<g>
	</g>
</g>
<g>
</g>
</svg>
